# Blender v2.93.1 OBJ File: 'MinecraftHead.blend'
# www.blender.org
mtllib MinecraftHead.mtl
o Second_Layer_Cube.001
v 1.050000 1.050000 -1.050000
v 1.050000 -1.050000 -1.050000
v 1.050000 1.050000 1.050000
v 1.050000 -1.050000 1.050000
v -1.050000 1.050000 -1.050000
v -1.050000 -1.050000 -1.050000
v -1.050000 1.050000 1.050000
v -1.050000 -1.050000 1.050000
v 1.050000 1.050000 1.050000
v -1.050000 1.050000 1.050000
v 1.050000 1.050000 -1.050000
v -1.050000 1.050000 -1.050000
v 1.050000 1.050000 1.050000
v -1.050000 1.050000 1.050000
v 1.050000 1.050000 -1.050000
v -1.050000 1.050000 -1.050000
v 1.000000 1.000000 -1.000000
v 1.000000 -1.000000 -1.000000
v 1.000000 1.000000 1.000000
v 1.000000 -1.000000 1.000000
v -1.000000 1.000000 -1.000000
v -1.000000 -1.000000 -1.000000
v -1.000000 1.000000 1.000000
v -1.000000 -1.000000 1.000000
vt 0.999617 0.752436
vt 0.875043 0.752129
vt 0.875043 0.752129
vt 0.999617 0.752436
vt 0.625000 0.750000
vt 0.625000 0.875000
vt 0.500000 0.875000
vt 0.500000 0.750000
vt 1.000000 0.750000
vt 1.000000 0.875000
vt 0.875000 0.875000
vt 0.875000 0.750000
vt 0.750000 1.000000
vt 0.750000 0.875000
vt 0.875000 0.875000
vt 0.875000 1.000000
vt 0.750000 0.750000
vt 0.750000 0.875000
vt 0.875043 0.752129
vt 0.999617 0.752436
vt 0.624867 0.876706
vt 0.750083 0.877707
vt 0.750083 0.877707
vt 0.624867 0.876706
vt 0.749588 0.877161
vt 0.874697 0.877062
vt 0.874697 0.877062
vt 0.749588 0.877161
vt 0.500213 0.875329
vt 0.623660 0.875469
vt 0.623660 0.875469
vt 0.500213 0.875329
vt 0.750000 0.875000
vt 0.750000 1.000000
vt 0.625000 1.000000
vt 0.625000 0.875000
vt 0.623660 0.875469
vt 0.500213 0.875329
vt 0.874697 0.877062
vt 0.749588 0.877161
vt 0.750083 0.877707
vt 0.624867 0.876706
vt 0.250000 0.875000
vt 0.250000 1.000000
vt 0.125000 1.000000
vt 0.125000 0.875000
vt 0.125000 0.750000
vt 0.000000 0.875000
vt 0.000000 0.750000
vt 0.500000 0.750000
vt 0.500000 0.875000
vt 0.375000 0.875000
vt 0.375000 0.750000
vt 0.250000 1.000000
vt 0.250000 0.875000
vt 0.375000 0.875000
vt 0.375000 1.000000
vt 0.250000 0.750000
vn 0.0000 0.0000 1.0000
vn -1.0000 0.0000 0.0000
vn 0.0000 -1.0000 0.0000
vn 1.0000 0.0000 0.0000
vn 0.0000 0.0000 -1.0000
vn 0.0000 1.0000 0.0000
usemtl Material.001
s off
f 5/1/1 7/2/1 10/3/1 12/4/1
f 4/5/1 3/6/1 7/7/1 8/8/1
f 8/9/2 7/10/2 5/11/2 6/12/2
f 6/13/3 2/14/3 4/15/3 8/16/3
f 2/17/4 1/18/4 3/6/4 4/5/4
f 6/12/5 5/11/5 1/18/5 2/17/5
f 12/4/1 10/3/1 14/19/1 16/20/1
f 3/21/1 1/22/1 11/23/1 9/24/1
f 1/25/1 5/26/1 12/27/1 11/28/1
f 7/29/1 3/30/1 9/31/1 10/32/1
f 15/33/6 16/34/6 14/35/6 13/36/6
f 10/32/1 9/31/1 13/37/1 14/38/1
f 11/28/1 12/27/1 16/39/1 15/40/1
f 9/24/1 11/23/1 15/41/1 13/42/1
usemtl Material
f 17/43/6 21/44/6 23/45/6 19/46/6
f 20/47/1 19/46/1 23/48/1 24/49/1
f 24/50/2 23/51/2 21/52/2 22/53/2
f 22/54/3 18/55/3 20/56/3 24/57/3
f 18/58/4 17/43/4 19/46/4 20/47/4
f 22/53/5 21/52/5 17/43/5 18/58/5
